<mxfile host="app.diagrams.net" agent="Mozilla/5.0 (Windows NT 10.0; Win64; x64) AppleWebKit/537.36 (KHTML, like Gecko) Chrome/129.0.0.0 Safari/537.36" version="24.7.14">
  <diagram name="Página-1" id="Z5qTCC-PuYx7XgyVqgpB">
    <mxGraphModel grid="1" page="1" gridSize="10" guides="1" tooltips="1" connect="1" arrows="1" fold="1" pageScale="1" pageWidth="827" pageHeight="1169" math="0" shadow="0">
      <root>
        <mxCell id="0" />
        <mxCell id="1" parent="0" />
        <mxCell id="6bvVdhG1Sso6OSCACQ8u-1" value="Músicas" style="rounded=0;whiteSpace=wrap;html=1;" vertex="1" parent="1">
          <mxGeometry x="260" y="250" width="120" height="60" as="geometry" />
        </mxCell>
        <mxCell id="6bvVdhG1Sso6OSCACQ8u-2" value="Artistas" style="rounded=0;whiteSpace=wrap;html=1;" vertex="1" parent="1">
          <mxGeometry x="260" y="50" width="120" height="60" as="geometry" />
        </mxCell>
        <mxCell id="6bvVdhG1Sso6OSCACQ8u-3" value="TOP 10" style="rounded=0;whiteSpace=wrap;html=1;" vertex="1" parent="1">
          <mxGeometry x="10" y="250" width="120" height="60" as="geometry" />
        </mxCell>
        <mxCell id="6bvVdhG1Sso6OSCACQ8u-4" value="Estilo" style="rounded=0;whiteSpace=wrap;html=1;" vertex="1" parent="1">
          <mxGeometry x="510" y="250" width="120" height="60" as="geometry" />
        </mxCell>
        <mxCell id="6bvVdhG1Sso6OSCACQ8u-5" value="Arquivo_musica" style="rounded=0;whiteSpace=wrap;html=1;" vertex="1" parent="1">
          <mxGeometry x="260" y="440" width="120" height="60" as="geometry" />
        </mxCell>
        <mxCell id="6bvVdhG1Sso6OSCACQ8u-10" value="produzem" style="rhombus;whiteSpace=wrap;html=1;" vertex="1" parent="1">
          <mxGeometry x="290" y="140" width="60" height="60" as="geometry" />
        </mxCell>
        <mxCell id="6bvVdhG1Sso6OSCACQ8u-11" value="possui" style="rhombus;whiteSpace=wrap;html=1;" vertex="1" parent="1">
          <mxGeometry x="170" y="250" width="60" height="60" as="geometry" />
        </mxCell>
        <mxCell id="6bvVdhG1Sso6OSCACQ8u-12" value="possui" style="rhombus;whiteSpace=wrap;html=1;" vertex="1" parent="1">
          <mxGeometry x="420" y="250" width="60" height="60" as="geometry" />
        </mxCell>
        <mxCell id="6bvVdhG1Sso6OSCACQ8u-13" value="armazena" style="rhombus;whiteSpace=wrap;html=1;" vertex="1" parent="1">
          <mxGeometry x="290" y="340" width="60" height="60" as="geometry" />
        </mxCell>
        <mxCell id="6bvVdhG1Sso6OSCACQ8u-15" value="" style="endArrow=none;html=1;rounded=0;entryX=0.5;entryY=1;entryDx=0;entryDy=0;exitX=0.5;exitY=0;exitDx=0;exitDy=0;" edge="1" parent="1" source="6bvVdhG1Sso6OSCACQ8u-10" target="6bvVdhG1Sso6OSCACQ8u-2">
          <mxGeometry width="50" height="50" relative="1" as="geometry">
            <mxPoint x="380" y="340" as="sourcePoint" />
            <mxPoint x="430" y="290" as="targetPoint" />
          </mxGeometry>
        </mxCell>
        <mxCell id="6bvVdhG1Sso6OSCACQ8u-16" value="" style="endArrow=none;html=1;rounded=0;entryX=0.5;entryY=0;entryDx=0;entryDy=0;exitX=0.5;exitY=1;exitDx=0;exitDy=0;" edge="1" parent="1" source="6bvVdhG1Sso6OSCACQ8u-10" target="6bvVdhG1Sso6OSCACQ8u-1">
          <mxGeometry width="50" height="50" relative="1" as="geometry">
            <mxPoint x="330" y="170" as="sourcePoint" />
            <mxPoint x="330" y="150" as="targetPoint" />
          </mxGeometry>
        </mxCell>
        <mxCell id="6bvVdhG1Sso6OSCACQ8u-17" value="" style="endArrow=none;html=1;rounded=0;entryX=1;entryY=0.5;entryDx=0;entryDy=0;exitX=0;exitY=0.5;exitDx=0;exitDy=0;" edge="1" parent="1" source="6bvVdhG1Sso6OSCACQ8u-1" target="6bvVdhG1Sso6OSCACQ8u-11">
          <mxGeometry width="50" height="50" relative="1" as="geometry">
            <mxPoint x="330" y="230" as="sourcePoint" />
            <mxPoint x="330" y="260" as="targetPoint" />
          </mxGeometry>
        </mxCell>
        <mxCell id="6bvVdhG1Sso6OSCACQ8u-18" value="" style="endArrow=none;html=1;rounded=0;entryX=1;entryY=0.5;entryDx=0;entryDy=0;exitX=0;exitY=0.5;exitDx=0;exitDy=0;" edge="1" parent="1" source="6bvVdhG1Sso6OSCACQ8u-11" target="6bvVdhG1Sso6OSCACQ8u-3">
          <mxGeometry width="50" height="50" relative="1" as="geometry">
            <mxPoint x="270" y="290" as="sourcePoint" />
            <mxPoint x="240" y="290" as="targetPoint" />
          </mxGeometry>
        </mxCell>
        <mxCell id="6bvVdhG1Sso6OSCACQ8u-19" value="" style="endArrow=none;html=1;rounded=0;entryX=1;entryY=0.5;entryDx=0;entryDy=0;exitX=0;exitY=0.5;exitDx=0;exitDy=0;" edge="1" parent="1" source="6bvVdhG1Sso6OSCACQ8u-12" target="6bvVdhG1Sso6OSCACQ8u-1">
          <mxGeometry width="50" height="50" relative="1" as="geometry">
            <mxPoint x="180" y="290" as="sourcePoint" />
            <mxPoint x="140" y="290" as="targetPoint" />
          </mxGeometry>
        </mxCell>
        <mxCell id="6bvVdhG1Sso6OSCACQ8u-20" value="" style="endArrow=none;html=1;rounded=0;entryX=0;entryY=0.5;entryDx=0;entryDy=0;exitX=1;exitY=0.5;exitDx=0;exitDy=0;" edge="1" parent="1" source="6bvVdhG1Sso6OSCACQ8u-12" target="6bvVdhG1Sso6OSCACQ8u-4">
          <mxGeometry width="50" height="50" relative="1" as="geometry">
            <mxPoint x="410" y="290" as="sourcePoint" />
            <mxPoint x="390" y="290" as="targetPoint" />
          </mxGeometry>
        </mxCell>
        <mxCell id="6bvVdhG1Sso6OSCACQ8u-21" value="" style="endArrow=none;html=1;rounded=0;entryX=0.5;entryY=0;entryDx=0;entryDy=0;exitX=0.5;exitY=1;exitDx=0;exitDy=0;" edge="1" parent="1" source="6bvVdhG1Sso6OSCACQ8u-1" target="6bvVdhG1Sso6OSCACQ8u-13">
          <mxGeometry width="50" height="50" relative="1" as="geometry">
            <mxPoint x="470" y="290" as="sourcePoint" />
            <mxPoint x="500" y="290" as="targetPoint" />
          </mxGeometry>
        </mxCell>
        <mxCell id="6bvVdhG1Sso6OSCACQ8u-22" value="" style="endArrow=none;html=1;rounded=0;entryX=0.5;entryY=1;entryDx=0;entryDy=0;exitX=0.5;exitY=0;exitDx=0;exitDy=0;" edge="1" parent="1" source="6bvVdhG1Sso6OSCACQ8u-5" target="6bvVdhG1Sso6OSCACQ8u-13">
          <mxGeometry width="50" height="50" relative="1" as="geometry">
            <mxPoint x="330" y="320" as="sourcePoint" />
            <mxPoint x="330" y="350" as="targetPoint" />
          </mxGeometry>
        </mxCell>
        <mxCell id="6bvVdhG1Sso6OSCACQ8u-24" value="(1,N)" style="text;html=1;align=center;verticalAlign=middle;whiteSpace=wrap;rounded=0;" vertex="1" parent="1">
          <mxGeometry x="318" y="230" width="40" height="20" as="geometry" />
        </mxCell>
        <mxCell id="6bvVdhG1Sso6OSCACQ8u-25" value="(1,N)" style="text;html=1;align=center;verticalAlign=middle;whiteSpace=wrap;rounded=0;" vertex="1" parent="1">
          <mxGeometry x="317" y="110" width="40" height="20" as="geometry" />
        </mxCell>
        <mxCell id="6bvVdhG1Sso6OSCACQ8u-26" value="(1,1)" style="text;html=1;align=center;verticalAlign=middle;whiteSpace=wrap;rounded=0;" vertex="1" parent="1">
          <mxGeometry x="225" y="260" width="40" height="20" as="geometry" />
        </mxCell>
        <mxCell id="6bvVdhG1Sso6OSCACQ8u-27" value="(0,1)" style="text;html=1;align=center;verticalAlign=middle;whiteSpace=wrap;rounded=0;" vertex="1" parent="1">
          <mxGeometry x="124" y="260" width="40" height="20" as="geometry" />
        </mxCell>
        <mxCell id="6bvVdhG1Sso6OSCACQ8u-28" value="(1,N)" style="text;html=1;align=center;verticalAlign=middle;whiteSpace=wrap;rounded=0;" vertex="1" parent="1">
          <mxGeometry x="314" y="311" width="40" height="20" as="geometry" />
        </mxCell>
        <mxCell id="6bvVdhG1Sso6OSCACQ8u-29" value="(1,N)" style="text;html=1;align=center;verticalAlign=middle;whiteSpace=wrap;rounded=0;" vertex="1" parent="1">
          <mxGeometry x="316" y="420" width="40" height="20" as="geometry" />
        </mxCell>
        <mxCell id="6bvVdhG1Sso6OSCACQ8u-30" value="(1,N)" style="text;html=1;align=center;verticalAlign=middle;whiteSpace=wrap;rounded=0;" vertex="1" parent="1">
          <mxGeometry x="379" y="260" width="34" height="20" as="geometry" />
        </mxCell>
        <mxCell id="6bvVdhG1Sso6OSCACQ8u-31" value="(1,N)" style="text;html=1;align=center;verticalAlign=middle;whiteSpace=wrap;rounded=0;" vertex="1" parent="1">
          <mxGeometry x="476" y="260" width="34" height="20" as="geometry" />
        </mxCell>
        <mxCell id="6bvVdhG1Sso6OSCACQ8u-32" value="pk_id_artistas" style="ellipse;whiteSpace=wrap;html=1;" vertex="1" parent="1">
          <mxGeometry x="164" y="10" width="80" height="30" as="geometry" />
        </mxCell>
        <mxCell id="6bvVdhG1Sso6OSCACQ8u-33" value="Nome" style="ellipse;whiteSpace=wrap;html=1;" vertex="1" parent="1">
          <mxGeometry x="240" y="-10" width="46" height="30" as="geometry" />
        </mxCell>
        <mxCell id="6bvVdhG1Sso6OSCACQ8u-34" value="Quantidade_musicas" style="ellipse;whiteSpace=wrap;html=1;" vertex="1" parent="1">
          <mxGeometry x="297" y="-10" width="106" height="30" as="geometry" />
        </mxCell>
        <mxCell id="6bvVdhG1Sso6OSCACQ8u-35" value="fk_musicas" style="ellipse;whiteSpace=wrap;html=1;" vertex="1" parent="1">
          <mxGeometry x="391" y="20" width="79" height="30" as="geometry" />
        </mxCell>
        <mxCell id="6bvVdhG1Sso6OSCACQ8u-36" value="pk_id_musicas" style="ellipse;whiteSpace=wrap;html=1;" vertex="1" parent="1">
          <mxGeometry x="230" y="180" width="46" height="30" as="geometry" />
        </mxCell>
        <mxCell id="6bvVdhG1Sso6OSCACQ8u-37" value="nome_musicas" style="ellipse;whiteSpace=wrap;html=1;" vertex="1" parent="1">
          <mxGeometry x="194" y="210" width="46" height="30" as="geometry" />
        </mxCell>
        <mxCell id="6bvVdhG1Sso6OSCACQ8u-38" value="nome_artistas" style="ellipse;whiteSpace=wrap;html=1;" vertex="1" parent="1">
          <mxGeometry x="367" y="190" width="46" height="30" as="geometry" />
        </mxCell>
        <mxCell id="6bvVdhG1Sso6OSCACQ8u-39" value="genero" style="ellipse;whiteSpace=wrap;html=1;" vertex="1" parent="1">
          <mxGeometry x="230" y="331" width="46" height="30" as="geometry" />
        </mxCell>
        <mxCell id="6bvVdhG1Sso6OSCACQ8u-40" value="mp3" style="ellipse;whiteSpace=wrap;html=1;" vertex="1" parent="1">
          <mxGeometry x="356" y="332" width="53" height="29" as="geometry" />
        </mxCell>
        <mxCell id="6bvVdhG1Sso6OSCACQ8u-42" value="pk_id_top10" style="ellipse;whiteSpace=wrap;html=1;" vertex="1" parent="1">
          <mxGeometry x="-14" y="180" width="46" height="30" as="geometry" />
        </mxCell>
        <mxCell id="6bvVdhG1Sso6OSCACQ8u-43" value="fk_id_artista" style="ellipse;whiteSpace=wrap;html=1;" vertex="1" parent="1">
          <mxGeometry x="-56" y="220" width="46" height="30" as="geometry" />
        </mxCell>
        <mxCell id="6bvVdhG1Sso6OSCACQ8u-44" value="fk_id_musica" style="ellipse;whiteSpace=wrap;html=1;" vertex="1" parent="1">
          <mxGeometry x="-70" y="265" width="46" height="30" as="geometry" />
        </mxCell>
        <mxCell id="6bvVdhG1Sso6OSCACQ8u-45" value="posicao" style="ellipse;whiteSpace=wrap;html=1;" vertex="1" parent="1">
          <mxGeometry x="-60" y="310" width="46" height="30" as="geometry" />
        </mxCell>
        <mxCell id="6bvVdhG1Sso6OSCACQ8u-47" value="pk_id_arquivo" style="ellipse;whiteSpace=wrap;html=1;" vertex="1" parent="1">
          <mxGeometry x="373" y="530" width="46" height="30" as="geometry" />
        </mxCell>
        <mxCell id="6bvVdhG1Sso6OSCACQ8u-48" value="arquivo&lt;span style=&quot;color: rgba(0, 0, 0, 0); font-family: monospace; font-size: 0px; text-align: start; text-wrap: nowrap;&quot;&gt;%3CmxGraphModel%3E%3Croot%3E%3CmxCell%20id%3D%220%22%2F%3E%3CmxCell%20id%3D%221%22%20parent%3D%220%22%2F%3E%3CmxCell%20id%3D%222%22%20value%3D%22pk_id_arquivo%22%20style%3D%22ellipse%3BwhiteSpace%3Dwrap%3Bhtml%3D1%3B%22%20vertex%3D%221%22%20parent%3D%221%22%3E%3CmxGeometry%20x%3D%22374%22%20y%3D%22520%22%20width%3D%2246%22%20height%3D%2230%22%20as%3D%22geometry%22%2F%3E%3C%2FmxCell%3E%3C%2Froot%3E%3C%2FmxGraphModel%3E&lt;/span&gt;" style="ellipse;whiteSpace=wrap;html=1;" vertex="1" parent="1">
          <mxGeometry x="316" y="540" width="46" height="30" as="geometry" />
        </mxCell>
        <mxCell id="6bvVdhG1Sso6OSCACQ8u-50" value="fk_id_musica" style="ellipse;whiteSpace=wrap;html=1;" vertex="1" parent="1">
          <mxGeometry x="260" y="540" width="46" height="30" as="geometry" />
        </mxCell>
        <mxCell id="6bvVdhG1Sso6OSCACQ8u-51" value="fk_id_artista" style="ellipse;whiteSpace=wrap;html=1;" vertex="1" parent="1">
          <mxGeometry x="200" y="540" width="46" height="30" as="geometry" />
        </mxCell>
        <mxCell id="6bvVdhG1Sso6OSCACQ8u-52" value="fk_id_top10" style="ellipse;whiteSpace=wrap;html=1;" vertex="1" parent="1">
          <mxGeometry x="424" y="500" width="46" height="30" as="geometry" />
        </mxCell>
        <mxCell id="6bvVdhG1Sso6OSCACQ8u-53" value="pk_id_estilo" style="ellipse;whiteSpace=wrap;html=1;" vertex="1" parent="1">
          <mxGeometry x="640" y="320" width="46" height="30" as="geometry" />
        </mxCell>
        <mxCell id="6bvVdhG1Sso6OSCACQ8u-54" value="fk_id_musica" style="ellipse;whiteSpace=wrap;html=1;" vertex="1" parent="1">
          <mxGeometry x="660" y="280" width="46" height="30" as="geometry" />
        </mxCell>
        <mxCell id="6bvVdhG1Sso6OSCACQ8u-55" value="fk_id_artista" style="ellipse;whiteSpace=wrap;html=1;" vertex="1" parent="1">
          <mxGeometry x="660" y="235" width="46" height="30" as="geometry" />
        </mxCell>
        <mxCell id="6bvVdhG1Sso6OSCACQ8u-56" value="" style="endArrow=none;html=1;rounded=0;entryX=0.638;entryY=1;entryDx=0;entryDy=0;exitX=0;exitY=0.5;exitDx=0;exitDy=0;entryPerimeter=0;" edge="1" parent="1" source="6bvVdhG1Sso6OSCACQ8u-2" target="6bvVdhG1Sso6OSCACQ8u-32">
          <mxGeometry width="50" height="50" relative="1" as="geometry">
            <mxPoint x="360" y="350" as="sourcePoint" />
            <mxPoint x="410" y="300" as="targetPoint" />
          </mxGeometry>
        </mxCell>
        <mxCell id="6bvVdhG1Sso6OSCACQ8u-58" value="" style="endArrow=none;html=1;rounded=0;entryX=0.5;entryY=1;entryDx=0;entryDy=0;exitX=0.25;exitY=0;exitDx=0;exitDy=0;" edge="1" parent="1" source="6bvVdhG1Sso6OSCACQ8u-2" target="6bvVdhG1Sso6OSCACQ8u-33">
          <mxGeometry width="50" height="50" relative="1" as="geometry">
            <mxPoint x="270" y="90" as="sourcePoint" />
            <mxPoint x="225" y="50" as="targetPoint" />
          </mxGeometry>
        </mxCell>
        <mxCell id="6bvVdhG1Sso6OSCACQ8u-59" value="" style="endArrow=none;html=1;rounded=0;entryX=0.5;entryY=1;entryDx=0;entryDy=0;exitX=0.5;exitY=0;exitDx=0;exitDy=0;" edge="1" parent="1" source="6bvVdhG1Sso6OSCACQ8u-2" target="6bvVdhG1Sso6OSCACQ8u-34">
          <mxGeometry width="50" height="50" relative="1" as="geometry">
            <mxPoint x="300" y="60" as="sourcePoint" />
            <mxPoint x="273" y="30" as="targetPoint" />
          </mxGeometry>
        </mxCell>
        <mxCell id="6bvVdhG1Sso6OSCACQ8u-60" value="" style="endArrow=none;html=1;rounded=0;entryX=0;entryY=0.5;entryDx=0;entryDy=0;exitX=0.75;exitY=0;exitDx=0;exitDy=0;" edge="1" parent="1" source="6bvVdhG1Sso6OSCACQ8u-2" target="6bvVdhG1Sso6OSCACQ8u-35">
          <mxGeometry width="50" height="50" relative="1" as="geometry">
            <mxPoint x="330" y="60" as="sourcePoint" />
            <mxPoint x="360" y="30" as="targetPoint" />
          </mxGeometry>
        </mxCell>
        <mxCell id="6bvVdhG1Sso6OSCACQ8u-61" value="" style="endArrow=none;html=1;rounded=0;entryX=1;entryY=0.5;entryDx=0;entryDy=0;exitX=0;exitY=0.5;exitDx=0;exitDy=0;" edge="1" parent="1" source="6bvVdhG1Sso6OSCACQ8u-55" target="6bvVdhG1Sso6OSCACQ8u-4">
          <mxGeometry width="50" height="50" relative="1" as="geometry">
            <mxPoint x="340" y="70" as="sourcePoint" />
            <mxPoint x="370" y="40" as="targetPoint" />
          </mxGeometry>
        </mxCell>
        <mxCell id="6bvVdhG1Sso6OSCACQ8u-62" value="" style="endArrow=none;html=1;rounded=0;entryX=1;entryY=0.5;entryDx=0;entryDy=0;exitX=0;exitY=0.5;exitDx=0;exitDy=0;" edge="1" parent="1" source="6bvVdhG1Sso6OSCACQ8u-54" target="6bvVdhG1Sso6OSCACQ8u-4">
          <mxGeometry width="50" height="50" relative="1" as="geometry">
            <mxPoint x="670" y="260" as="sourcePoint" />
            <mxPoint x="640" y="290" as="targetPoint" />
          </mxGeometry>
        </mxCell>
        <mxCell id="6bvVdhG1Sso6OSCACQ8u-63" value="" style="endArrow=none;html=1;rounded=0;entryX=1;entryY=0.5;entryDx=0;entryDy=0;exitX=0.5;exitY=0;exitDx=0;exitDy=0;" edge="1" parent="1" source="6bvVdhG1Sso6OSCACQ8u-53" target="6bvVdhG1Sso6OSCACQ8u-4">
          <mxGeometry width="50" height="50" relative="1" as="geometry">
            <mxPoint x="670" y="305" as="sourcePoint" />
            <mxPoint x="640" y="290" as="targetPoint" />
          </mxGeometry>
        </mxCell>
        <mxCell id="6bvVdhG1Sso6OSCACQ8u-64" value="" style="endArrow=none;html=1;rounded=0;entryX=0.5;entryY=1;entryDx=0;entryDy=0;exitX=0.75;exitY=0;exitDx=0;exitDy=0;" edge="1" parent="1" source="6bvVdhG1Sso6OSCACQ8u-1" target="6bvVdhG1Sso6OSCACQ8u-38">
          <mxGeometry width="50" height="50" relative="1" as="geometry">
            <mxPoint x="680" y="315" as="sourcePoint" />
            <mxPoint x="650" y="300" as="targetPoint" />
          </mxGeometry>
        </mxCell>
        <mxCell id="6bvVdhG1Sso6OSCACQ8u-65" value="" style="endArrow=none;html=1;rounded=0;entryX=0.5;entryY=1;entryDx=0;entryDy=0;exitX=0.25;exitY=0;exitDx=0;exitDy=0;" edge="1" parent="1" source="6bvVdhG1Sso6OSCACQ8u-1" target="6bvVdhG1Sso6OSCACQ8u-36">
          <mxGeometry width="50" height="50" relative="1" as="geometry">
            <mxPoint x="690" y="325" as="sourcePoint" />
            <mxPoint x="660" y="310" as="targetPoint" />
          </mxGeometry>
        </mxCell>
        <mxCell id="6bvVdhG1Sso6OSCACQ8u-66" value="" style="endArrow=none;html=1;rounded=0;exitX=0.25;exitY=0;exitDx=0;exitDy=0;" edge="1" parent="1" source="6bvVdhG1Sso6OSCACQ8u-1" target="6bvVdhG1Sso6OSCACQ8u-37">
          <mxGeometry width="50" height="50" relative="1" as="geometry">
            <mxPoint x="300" y="260" as="sourcePoint" />
            <mxPoint x="263" y="220" as="targetPoint" />
          </mxGeometry>
        </mxCell>
        <mxCell id="6bvVdhG1Sso6OSCACQ8u-67" value="" style="endArrow=none;html=1;rounded=0;entryX=0.5;entryY=0;entryDx=0;entryDy=0;exitX=0.25;exitY=1;exitDx=0;exitDy=0;" edge="1" parent="1" source="6bvVdhG1Sso6OSCACQ8u-1" target="6bvVdhG1Sso6OSCACQ8u-39">
          <mxGeometry width="50" height="50" relative="1" as="geometry">
            <mxPoint x="310" y="270" as="sourcePoint" />
            <mxPoint x="273" y="230" as="targetPoint" />
          </mxGeometry>
        </mxCell>
        <mxCell id="6bvVdhG1Sso6OSCACQ8u-68" value="" style="endArrow=none;html=1;rounded=0;entryX=0.75;entryY=1;entryDx=0;entryDy=0;exitX=0;exitY=0;exitDx=0;exitDy=0;" edge="1" parent="1" source="6bvVdhG1Sso6OSCACQ8u-40" target="6bvVdhG1Sso6OSCACQ8u-1">
          <mxGeometry width="50" height="50" relative="1" as="geometry">
            <mxPoint x="300" y="320" as="sourcePoint" />
            <mxPoint x="263" y="341" as="targetPoint" />
          </mxGeometry>
        </mxCell>
        <mxCell id="6bvVdhG1Sso6OSCACQ8u-69" value="" style="endArrow=none;html=1;rounded=0;entryX=0.5;entryY=0;entryDx=0;entryDy=0;exitX=0.25;exitY=1;exitDx=0;exitDy=0;" edge="1" parent="1" source="6bvVdhG1Sso6OSCACQ8u-5" target="6bvVdhG1Sso6OSCACQ8u-51">
          <mxGeometry width="50" height="50" relative="1" as="geometry">
            <mxPoint x="310" y="330" as="sourcePoint" />
            <mxPoint x="273" y="351" as="targetPoint" />
          </mxGeometry>
        </mxCell>
        <mxCell id="6bvVdhG1Sso6OSCACQ8u-70" value="" style="endArrow=none;html=1;rounded=0;entryX=0.5;entryY=0;entryDx=0;entryDy=0;exitX=0.25;exitY=1;exitDx=0;exitDy=0;" edge="1" parent="1" source="6bvVdhG1Sso6OSCACQ8u-5" target="6bvVdhG1Sso6OSCACQ8u-50">
          <mxGeometry width="50" height="50" relative="1" as="geometry">
            <mxPoint x="300" y="510" as="sourcePoint" />
            <mxPoint x="233" y="550" as="targetPoint" />
          </mxGeometry>
        </mxCell>
        <mxCell id="6bvVdhG1Sso6OSCACQ8u-71" value="" style="endArrow=none;html=1;rounded=0;entryX=0.5;entryY=0;entryDx=0;entryDy=0;exitX=0.5;exitY=1;exitDx=0;exitDy=0;" edge="1" parent="1" source="6bvVdhG1Sso6OSCACQ8u-5" target="6bvVdhG1Sso6OSCACQ8u-48">
          <mxGeometry width="50" height="50" relative="1" as="geometry">
            <mxPoint x="300" y="510" as="sourcePoint" />
            <mxPoint x="293" y="550" as="targetPoint" />
          </mxGeometry>
        </mxCell>
        <mxCell id="6bvVdhG1Sso6OSCACQ8u-72" value="" style="endArrow=none;html=1;rounded=0;entryX=0;entryY=0;entryDx=0;entryDy=0;exitX=0.5;exitY=1;exitDx=0;exitDy=0;" edge="1" parent="1" source="6bvVdhG1Sso6OSCACQ8u-5" target="6bvVdhG1Sso6OSCACQ8u-47">
          <mxGeometry width="50" height="50" relative="1" as="geometry">
            <mxPoint x="330" y="510" as="sourcePoint" />
            <mxPoint x="349" y="550" as="targetPoint" />
          </mxGeometry>
        </mxCell>
        <mxCell id="6bvVdhG1Sso6OSCACQ8u-73" value="" style="endArrow=none;html=1;rounded=0;entryX=0;entryY=0.5;entryDx=0;entryDy=0;exitX=1;exitY=0.5;exitDx=0;exitDy=0;" edge="1" parent="1" source="6bvVdhG1Sso6OSCACQ8u-5" target="6bvVdhG1Sso6OSCACQ8u-52">
          <mxGeometry width="50" height="50" relative="1" as="geometry">
            <mxPoint x="330" y="510" as="sourcePoint" />
            <mxPoint x="390" y="544" as="targetPoint" />
          </mxGeometry>
        </mxCell>
        <mxCell id="6bvVdhG1Sso6OSCACQ8u-74" value="" style="endArrow=none;html=1;rounded=0;entryX=0;entryY=0.5;entryDx=0;entryDy=0;exitX=1;exitY=0.5;exitDx=0;exitDy=0;" edge="1" parent="1" source="6bvVdhG1Sso6OSCACQ8u-45" target="6bvVdhG1Sso6OSCACQ8u-3">
          <mxGeometry width="50" height="50" relative="1" as="geometry">
            <mxPoint x="340" y="520" as="sourcePoint" />
            <mxPoint x="400" y="554" as="targetPoint" />
          </mxGeometry>
        </mxCell>
        <mxCell id="6bvVdhG1Sso6OSCACQ8u-75" value="" style="endArrow=none;html=1;rounded=0;entryX=0;entryY=0.5;entryDx=0;entryDy=0;exitX=1;exitY=0.5;exitDx=0;exitDy=0;" edge="1" parent="1" source="6bvVdhG1Sso6OSCACQ8u-44" target="6bvVdhG1Sso6OSCACQ8u-3">
          <mxGeometry width="50" height="50" relative="1" as="geometry">
            <mxPoint x="-4" y="335" as="sourcePoint" />
            <mxPoint x="20" y="290" as="targetPoint" />
          </mxGeometry>
        </mxCell>
        <mxCell id="6bvVdhG1Sso6OSCACQ8u-76" value="" style="endArrow=none;html=1;rounded=0;entryX=0;entryY=0.5;entryDx=0;entryDy=0;exitX=1;exitY=0.5;exitDx=0;exitDy=0;" edge="1" parent="1" source="6bvVdhG1Sso6OSCACQ8u-43" target="6bvVdhG1Sso6OSCACQ8u-3">
          <mxGeometry width="50" height="50" relative="1" as="geometry">
            <mxPoint x="-14" y="290" as="sourcePoint" />
            <mxPoint x="20" y="290" as="targetPoint" />
          </mxGeometry>
        </mxCell>
        <mxCell id="6bvVdhG1Sso6OSCACQ8u-77" value="" style="endArrow=none;html=1;rounded=0;entryX=0.25;entryY=0;entryDx=0;entryDy=0;exitX=0.5;exitY=1;exitDx=0;exitDy=0;" edge="1" parent="1" source="6bvVdhG1Sso6OSCACQ8u-42" target="6bvVdhG1Sso6OSCACQ8u-3">
          <mxGeometry width="50" height="50" relative="1" as="geometry">
            <mxPoint y="245" as="sourcePoint" />
            <mxPoint x="20" y="290" as="targetPoint" />
          </mxGeometry>
        </mxCell>
      </root>
    </mxGraphModel>
  </diagram>
</mxfile>
